<?xml version="1.0" encoding="UTF-8"?>
<svg version="1.1" xmlns="http://www.w3.org/2000/svg" width="400" height="111">
<path d="M0 0 C2.73929097 2.46536187 2.85692207 4.44344796 3.125 8.0625 C2.7930558 12.87569088 1.23100281 15.33149719 -2.125 18.6875 C-1.63 19.6775 -1.63 19.6775 -1.125 20.6875 C-1.01959496 22.3041801 -0.97626572 23.92510088 -0.96386719 25.54516602 C-0.95425964 26.55704483 -0.9446521 27.56892365 -0.93475342 28.61146545 C-0.93050354 29.71034592 -0.92625366 30.80922638 -0.921875 31.94140625 C-0.91617493 33.07142563 -0.91047485 34.20144501 -0.90460205 35.3657074 C-0.89513926 37.76405905 -0.88861302 40.16242378 -0.88476562 42.56079102 C-0.87510407 46.21068486 -0.84411035 49.8600051 -0.8125 53.50976562 C-0.80596557 55.84114249 -0.80071683 58.17252339 -0.796875 60.50390625 C-0.7845282 61.5886171 -0.7721814 62.67332794 -0.75946045 63.79090881 C-0.78656233 73.12809676 -2.25921906 80.94011847 -8.98095703 87.75610352 C-16.65863323 94.67230671 -24.76636373 95.45386012 -34.75 95.25 C-35.925625 95.26095703 -37.10125 95.27191406 -38.3125 95.28320312 C-45.99381099 95.21847298 -51.88436782 94.51051294 -57.79589844 89.18115234 C-60.37514601 86.28257838 -60.23330341 82.42078231 -60.125 78.6875 C-58.97972153 75.37222023 -58.07904589 73.47118055 -55.375 71.25 C-50.75022284 70.09380571 -46.8779839 71.35134647 -42.625 73.25 C-38.74452356 74.84376711 -36.27887988 75.14904221 -32.125 74.6875 C-28.68378802 73.23454383 -27.4592405 72.37189721 -25.8125 69 C-25.585625 68.236875 -25.35875 67.47375 -25.125 66.6875 C-25.81980469 67.01105469 -26.51460937 67.33460937 -27.23046875 67.66796875 C-33.49414176 69.87420175 -41.27239935 69.63717705 -47.5625 67.5 C-56.01242872 63.20091346 -59.71957896 57.78273565 -62.74609375 48.85546875 C-64.67572911 37.81477156 -63.83582184 25.77199038 -57.4375 16.375 C-52.4259452 10.24976636 -45.96422529 6.68703692 -38.125 5.6875 C-33.03815872 5.39148167 -28.08149325 5.36576847 -23.125 6.6875 C-22.75375 5.924375 -22.3825 5.16125 -22 4.375 C-17.07375793 -2.68594697 -7.50644063 -3.15270506 0 0 Z M-37 28.6875 C-39.63193011 32.40316604 -40.44246778 35.15714904 -40.125 39.6875 C-39.14449936 43.24789949 -37.76616728 46.04633272 -35.125 48.6875 C-30.03453963 49.27729008 -30.03453963 49.27729008 -25.39453125 47.66796875 C-23.39106641 44.5425636 -23.69251407 41.27717669 -23.75 37.6875 C-23.73839844 36.96304688 -23.72679687 36.23859375 -23.71484375 35.4921875 C-23.7368522 31.37468246 -23.7368522 31.37468246 -25.4375 27.71875 C-29.56173865 25.19838194 -33.2381478 26.07055934 -37 28.6875 Z " fill="#31A46F" transform="translate(272.125,16.3125)"/>
<path d="M0 0 C1.01964844 -0.00773438 2.03929687 -0.01546875 3.08984375 -0.0234375 C7.40480872 0.55491523 10.02282847 2.33532847 13.0625 5.375 C13.99757036 8.84047774 14.18107328 12.09896928 14.16015625 15.67578125 C14.15693359 16.65224609 14.15371094 17.62871094 14.15039062 18.63476562 C14.14201172 19.64216797 14.13363281 20.64957031 14.125 21.6875 C14.12048828 22.71423828 14.11597656 23.74097656 14.11132812 24.79882812 C14.09958201 27.32424388 14.08164771 29.84962952 14.0625 32.375 C20.9925 32.375 27.9225 32.375 35.0625 32.375 C35.01029297 29.39533203 35.01029297 29.39533203 34.95703125 26.35546875 C34.93617013 24.42929205 34.91541571 22.50311254 34.89770508 20.5769043 C34.87521667 18.58172299 34.83709802 16.58673787 34.79882812 14.59179688 C34.78916016 13.33818359 34.77949219 12.08457031 34.76953125 10.79296875 C34.7538208 9.63563232 34.73811035 8.4782959 34.72192383 7.28588867 C35.0625 4.375 35.0625 4.375 36.45581055 2.53637695 C41.07201118 -0.80039047 46.58764555 -0.02525046 52.0625 0.375 C57.22990816 2.15686488 57.22990816 2.15686488 59.19277954 5.02867126 C60.40455623 8.29779807 60.33281698 11.18165451 60.35302734 14.66625977 C60.35974457 15.39354279 60.36646179 16.12082581 60.37338257 16.87014771 C60.39234772 19.2689704 60.39628539 21.66751331 60.3984375 24.06640625 C60.4048644 25.73502213 60.41159268 27.40363687 60.41860962 29.07225037 C60.43057716 32.56666682 60.43429078 36.06098442 60.43310547 39.55541992 C60.43290183 44.03703934 60.46025184 48.5180278 60.49464989 52.99949741 C60.5168605 56.44385198 60.52094489 59.88805298 60.51988602 63.33247185 C60.52224896 64.985129 60.53111134 66.63778994 60.54655075 68.29037666 C60.56610208 70.59841677 60.5604179 72.90507338 60.54833984 75.21313477 C60.55118988 76.52677505 60.55403992 77.84041534 60.55697632 79.19386292 C60.0625 82.375 60.0625 82.375 58.16201782 84.28623962 C53.37669769 86.76779367 47.9674769 86.77399079 42.75 85.75 C38.56927745 84.19108651 37.44134079 83.06984349 35.0625 79.375 C34.60839844 76.51245117 34.60839844 76.51245117 34.671875 73.41796875 C34.68476562 72.30615234 34.69765625 71.19433594 34.7109375 70.04882812 C34.74445312 68.89833984 34.77796875 67.74785156 34.8125 66.5625 C34.83054688 65.39267578 34.84859375 64.22285156 34.8671875 63.01757812 C34.91422768 60.13636718 34.98596803 57.25557844 35.0625 54.375 C27.8025 54.375 20.5425 54.375 13.0625 54.375 C13.31 56.6025 13.31 56.6025 13.5625 58.875 C13.99622948 63.85317862 14.2654299 68.81792938 14.375 73.8125 C14.41947266 74.84117188 14.41947266 74.84117188 14.46484375 75.890625 C14.50408751 79.20672265 14.28502756 81.06194418 12.34375 83.79296875 C8.08277607 86.74792499 3.00483107 86.77970725 -2.0390625 86.0859375 C-5.47231254 85.2239726 -7.89251416 84.26911758 -9.9375 81.375 C-10.23861268 78.81051127 -10.35773133 76.48743084 -10.34155273 73.921875 C-10.35184761 72.78727844 -10.35184761 72.78727844 -10.36235046 71.62976074 C-10.3806611 69.12798322 -10.37677546 66.62683018 -10.37109375 64.125 C-10.3756532 62.38769323 -10.38095806 60.65038826 -10.38697815 58.91308594 C-10.39591737 55.27140985 -10.3934766 51.62995297 -10.38354492 47.98828125 C-10.37204821 43.31715905 -10.39227296 38.64679201 -10.42146206 33.97576904 C-10.43979025 30.38813456 -10.4395385 26.80068223 -10.43382454 23.2130127 C-10.43367094 21.4905898 -10.43974704 19.76815486 -10.45211601 18.04577637 C-10.46696277 15.63940758 -10.45639747 13.23444906 -10.43920898 10.828125 C-10.44887695 10.11426636 -10.45854492 9.40040771 -10.46850586 8.66491699 C-10.42038866 5.4547383 -10.3468172 3.80353737 -8.08363342 1.43408203 C-5.27214159 0.04665642 -3.12730394 -0.02366182 0 0 Z " fill="#31A46F" transform="translate(9.9375,3.625)"/>
<path d="M0 0 C1.15145508 0.01643555 1.15145508 0.01643555 2.32617188 0.03320312 C3.08994141 0.00935547 3.85371094 -0.01449219 4.640625 -0.0390625 C5.38119141 -0.03712891 6.12175781 -0.03519531 6.88476562 -0.03320312 C7.89301392 -0.03429077 7.89301392 -0.03429077 8.92163086 -0.03540039 C12.09612741 0.98310198 13.11033421 2.82709306 14.88867188 5.59570312 C15.255764 8.43030316 15.3970498 10.86465395 15.34277344 13.69067383 C15.34335754 14.49119675 15.34394165 15.29171967 15.34454346 16.11650085 C15.34176562 18.75194263 15.31068888 21.38624118 15.27929688 24.02148438 C15.27183339 25.85279218 15.26614097 27.68410798 15.262146 29.51542664 C15.24689809 34.327547 15.20762357 39.13918185 15.16333008 43.95111084 C15.12235917 48.86447584 15.1041311 53.77791954 15.08398438 58.69140625 C15.04112848 68.32638479 14.97288735 77.96100353 14.88867188 87.59570312 C8.56663816 90.42083588 4.61573452 91.19683618 -2.11132812 89.59570312 C-2.97757813 88.99757813 -3.84382813 88.39945312 -4.73632812 87.78320312 C-5.91195312 87.19539063 -5.91195312 87.19539063 -7.11132812 86.59570312 C-8.95593389 87.56831344 -10.79664948 88.54974815 -12.60742188 89.58398438 C-18.43970558 91.94055455 -25.52060512 91.51787918 -31.54492188 89.97070312 C-37.98187186 87.16002711 -42.5095647 82.04020323 -45.43554688 75.74804688 C-49.5500166 64.09760101 -50.10795596 50.08607575 -45.11132812 38.59570312 C-41.18499281 31.85491507 -35.70628779 25.95927979 -28.11132812 23.59570312 C-25.36098944 23.43245365 -22.730209 23.36072249 -19.98632812 23.40820312 C-18.91318359 23.40916992 -18.91318359 23.40916992 -17.81835938 23.41015625 C-14.65973709 23.4367241 -12.1270215 23.590472 -9.11132812 24.59570312 C-9.12703857 24.01079102 -9.14274902 23.42587891 -9.15893555 22.82324219 C-9.2214308 20.16416148 -9.26036381 17.50523549 -9.29882812 14.84570312 C-9.32396484 13.9253125 -9.34910156 13.00492188 -9.375 12.05664062 C-9.38466797 11.1671875 -9.39433594 10.27773437 -9.40429688 9.36132812 C-9.42000732 8.54438477 -9.43571777 7.72744141 -9.4519043 6.88574219 C-8.5890726 1.08404949 -5.51045999 0.07206356 0 0 Z M-21.11132812 45.59570312 C-25.00085555 50.87434748 -24.97659208 57.29284899 -24.11132812 63.59570312 C-22.461085 66.99663895 -21.66533895 68.30023069 -18.29882812 70.09570312 C-14.2691504 70.72780944 -12.61531655 69.51141228 -9.11132812 67.59570312 C-8.96627637 64.15864608 -8.87734798 60.72237279 -8.79882812 57.28320312 C-8.75693359 56.30673828 -8.71503906 55.33027344 -8.671875 54.32421875 C-8.62612491 51.66156328 -8.63720032 49.21697731 -9.11132812 46.59570312 C-12.9610304 43.01683417 -16.75965139 42.60392537 -21.11132812 45.59570312 Z " fill="#31A46F" transform="translate(188.111328125,-0.595703125)"/>
<path d="M0 0 C5.68008397 5.1637127 6.82754235 13.63811075 8.75 20.75 C9.07033203 21.9153125 9.39066406 23.080625 9.72070312 24.28125 C10.50688405 27.14435665 11.2872873 30.00890789 12.0625 32.875 C12.67161619 30.52201817 13.27555753 28.16795311 13.875 25.8125 C14.05804688 25.09747314 14.24109375 24.38244629 14.4296875 23.64575195 C15.35264571 19.97126493 16.19649753 16.30971105 16.85546875 12.578125 C16.97623779 11.90273682 17.09700684 11.22734863 17.22143555 10.53149414 C17.54695214 8.65225914 17.85211848 6.76953294 18.15625 4.88671875 C19.0625 1.875 19.0625 1.875 20.7890625 -0.015625 C23.647083 -1.41026043 25.76171511 -1.55845956 28.9375 -1.5625 C30.44957031 -1.59150391 30.44957031 -1.59150391 31.9921875 -1.62109375 C36.00498085 -0.9727162 38.06251938 0.12501776 41.0625 2.875 C41.795706 5.76158578 42.01772104 7.60205511 41.9375 10.5 C41.91804321 11.66341919 41.91804321 11.66341919 41.89819336 12.8503418 C40.79193977 34.45692291 30.11635371 66.12794834 13.66796875 81.046875 C7.64055626 85.91554422 3.36780793 87.08998353 -4.375 87.1875 C-5.5206543 87.23100586 -5.5206543 87.23100586 -6.68945312 87.27539062 C-12.3316119 87.33922706 -12.3316119 87.33922706 -15.41015625 84.98046875 C-18.64805096 80.51697707 -18.53830514 76.25612427 -17.9375 70.875 C-16.28206823 68.11594704 -15.09831235 67.21991351 -12.03125 66.30859375 C-10.63995068 65.97893887 -9.2438628 65.66885498 -7.84375 65.37890625 C-5.40385286 64.73393344 -3.78499775 63.56853961 -1.9375 61.875 C-3.85909793 55.78815068 -6.12335806 49.96596451 -8.6875 44.125 C-11.69963397 37.08681617 -14.44988867 29.9906797 -16.9375 22.75 C-17.24010742 21.89825195 -17.54271484 21.04650391 -17.85449219 20.16894531 C-19.65979414 14.77420361 -20.80103918 9.57868746 -19.9375 3.875 C-15.38239798 -2.40789934 -6.84198953 -2.62033641 0 0 Z " fill="#31A46F" transform="translate(358.9375,24.125)"/>
<path d="M0 0 C5.65722444 4.71587691 8.98593045 8.84554083 9.72265625 16.3828125 C9.91678748 21.41880506 9.90204674 25.20437711 7.79296875 29.828125 C-1.17180195 39.02881072 -13.32310325 39.69222353 -25.58203125 40.265625 C-22.18070843 42.53317355 -20.64863421 43.04381029 -16.58203125 43.265625 C-12.44984931 42.33255166 -8.37853966 41.16387921 -4.58203125 39.265625 C2.35272241 38.70637067 2.35272241 38.70637067 5.91796875 40.578125 C8.39279509 45.01218886 8.46752398 49.33914128 7.41796875 54.265625 C4.00013027 59.40787141 -1.78704096 61.69714104 -7.58203125 63.265625 C-10.88562072 63.68900427 -14.12936476 63.74331268 -17.45703125 63.703125 C-18.34036133 63.69482666 -19.22369141 63.68652832 -20.13378906 63.67797852 C-29.76379194 63.42806802 -36.72259007 60.98801117 -43.82421875 54.33203125 C-51.83677254 44.91282912 -52.38246285 34.0438277 -51.58203125 22.265625 C-50.26133523 13.79302426 -46.13354371 5.76446149 -39.33203125 0.390625 C-28.08147201 -6.72406126 -11.22373446 -7.53908941 0 0 Z M-24.95703125 15.953125 C-26.72732252 18.47238565 -27.07536493 20.27033293 -27.58203125 23.265625 C-25.81153436 23.31973187 -24.04056276 23.35846619 -22.26953125 23.390625 C-20.79033203 23.42542969 -20.79033203 23.42542969 -19.28125 23.4609375 C-16.35796598 23.47245139 -16.35796598 23.47245139 -13.58203125 21.265625 C-13.85743829 17.44749053 -13.85743829 17.44749053 -15.58203125 14.265625 C-20.59018076 13.77932987 -20.59018076 13.77932987 -24.95703125 15.953125 Z " fill="#31A46F" transform="translate(328.58203125,26.734375)"/>
<path d="M0 0 C5.83555203 4.79812056 10.31293616 9.67120337 11.1484375 17.43359375 C11.252968 26.30823297 11.252968 26.30823297 9.25 30.875 C3.46270828 36.66229172 -3.58617761 39.37908583 -11.80859375 39.5078125 C-13.41418007 39.49470567 -15.01971245 39.47113213 -16.625 39.4375 C-17.45193359 39.42847656 -18.27886719 39.41945312 -19.13085938 39.41015625 C-21.14986708 39.38681512 -23.16872356 39.35095288 -25.1875 39.3125 C-22.26402734 42.38519902 -22.26402734 42.38519902 -18.26953125 43.515625 C-14.17076921 43.60028101 -11.52485106 43.45707903 -7.6875 41.8125 C-3.51282526 40.02335368 0.31808537 39.4240692 4.8125 40.3125 C7.26654807 42.32752112 8.63822325 44.06766609 9.0859375 47.265625 C9.27429221 51.52533913 9.08297099 53.83466792 6.9375 57.625 C0.42606825 64.02939452 -7.46208121 64.72358772 -16.1875 64.8125 C-26.75014755 64.69542751 -34.56019137 62.76659151 -42.4296875 55.375 C-50.45903462 45.95389938 -50.82084359 35.11898044 -50.1875 23.3125 C-49.08114204 15.23304189 -46.09455455 8.9910418 -40.1875 3.3125 C-28.81121324 -5.04100321 -12.58721396 -6.66381916 0 0 Z M-24.125 18.125 C-26.45912564 21.09952081 -26.45912564 21.09952081 -26.1875 24.3125 C-18.91015339 25.03469068 -18.91015339 25.03469068 -12.5 22.3125 C-12.066875 21.6525 -11.63375 20.9925 -11.1875 20.3125 C-12.17885641 17.6851974 -12.17885641 17.6851974 -14.1875 15.3125 C-18.68891333 14.39554543 -21.11836314 14.6986332 -24.125 18.125 Z " fill="#31A46F" transform="translate(126.1875,25.6875)"/>
</svg>
