<svg version="1.1" id="svg9835" inkscape:version="0.92.0 r15299" xmlns:inkscape="http://www.inkscape.org/namespaces/inkscape" xmlns:svg="http://www.w3.org/2000/svg" xmlns:sodipodi="http://sodipodi.sourceforge.net/DTD/sodipodi-0.dtd" xmlns:cc="http://creativecommons.org/ns#" xmlns:rdf="http://www.w3.org/1999/02/22-rdf-syntax-ns#" xmlns:dc="http://purl.org/dc/elements/1.1/" xmlns="http://www.w3.org/2000/svg" xmlns:xlink="http://www.w3.org/1999/xlink" x="0px" y="0px" viewBox="-768 400.8 1137.8 164.8" style="enable-background:new -768 400.8 1137.8 164.8;" xml:space="preserve">
 <style type="text/css">
  .st0{fill:url(#polygon9702_1_);}
	.st1{fill:#D81222;}
 </style>
 <sodipodi:namedview fit-margin-right="0" inkscape:document-units="mm" inkscape:current-layer="layer1" fit-margin-bottom="0" inkscape:pageopacity="0.0" inkscape:pageshadow="2" inkscape:window-width="1280" inkscape:window-height="744" inkscape:window-x="-4" inkscape:window-y="-4" inkscape:window-maximized="1" id="base" pagecolor="#ffffff" bordercolor="#666666" inkscape:zoom="1.9959945" borderopacity="1.0" inkscape:cy="32.550025" inkscape:cx="224.70002" showgrid="false" fit-margin-top="0" fit-margin-left="0">
 </sodipodi:namedview>
 <g id="layer1" transform="translate(12.582832,-170.97114)" inkscape:groupmode="layer" inkscape:label="Layer 1">
  <g id="g9910" transform="translate(0.50000041,-0.50000076)">
   <path fill="#ffffff" id="path9659" inkscape:connector-curvature="0" d="M-642.1,734.5h-18.2v-88.1h18.2V734.5z">
   </path>
   <path fill="#ffffff" id="path9661" inkscape:connector-curvature="0" d="M-573.4,673c4.3,3.5,6.3,9.4,6.3,17.5v44.1h-17.5V695
			c0-3.5-0.5-6.1-1.3-7.8c-1.8-3.3-4.8-5.1-9.6-5.1c-5.8,0-9.6,2.5-11.9,7.3c-1,2.5-1.8,5.8-1.8,9.9v35.4h-17v-65.3h16.5v9.6
			c2.3-3.3,4.3-5.8,6.1-7.3c3.5-2.5,7.8-4.1,13.4-4.1C-583.3,667.7-577.7,669.5-573.4,673z">
   </path>
   <path fill="#ffffff" id="path9663" inkscape:connector-curvature="0" d="M-558.8,682.1V670h9.1v-18.2h17V670h10.6v12.2h-10.6v34.4
			c0,2.8,0.3,4.3,1,5.1c0.8,0.8,2.8,1,6.3,1c0.5,0,1,0,1.8,0c0.5,0,1.3,0,1.8,0v12.7l-8.6,0.3c-8.1,0.3-13.7-1-16.5-4.3
			c-2-2-2.8-5.1-2.8-9.1v-40L-558.8,682.1z">
   </path>
   <path fill="#ffffff" id="path9665" inkscape:connector-curvature="0" d="M-469.6,670.7c4.6,2,8.4,5.3,11.4,9.6c2.8,3.8,4.3,8.4,5.3,13.4
			c0.5,3,0.8,7.3,0.5,12.9H-500c0.3,6.6,2.5,11.1,6.8,13.7c2.5,1.5,5.8,2.5,9.4,2.5c3.8,0,7.1-1,9.4-3c1.3-1,2.5-2.5,3.5-4.6h17.5
			c-0.5,3.8-2.5,7.8-6.3,11.9c-5.8,6.3-13.9,9.6-24.6,9.6c-8.6,0-16.5-2.8-23-8.1c-6.6-5.3-9.9-14.2-9.9-26.1c0-11.4,3-20,9.1-26.1
			c6.1-6.1,13.7-9.1,23.3-9.1C-479.3,667.7-474.2,668.7-469.6,670.7L-469.6,670.7z M-495.2,685.4c-2.5,2.5-4.1,5.8-4.6,10.1h29.4
			c-0.3-4.6-1.8-7.8-4.6-10.4c-2.8-2.3-6.1-3.5-10.1-3.5C-489.4,681.6-492.7,682.9-495.2,685.4z">
   </path>
   <path fill="#ffffff" id="path9667" inkscape:connector-curvature="0" d="M-406.3,667.9c0.3,0,0.8,0,1.5,0v17.5c-1,0-2-0.3-2.8-0.3
			c-0.8,0-1.5,0-2,0c-6.8,0-11.4,2.3-13.9,6.6c-1.3,2.5-2,6.3-2,11.6v31.1h-17.2v-65.1h16.2v11.4c2.5-4.3,4.8-7.3,6.8-8.9
			c3.3-2.8,7.3-4.1,12.4-4.1C-406.8,667.7-406.6,667.7-406.3,667.9L-406.3,667.9z">
   </path>
   <path fill="#ffffff" id="path9669" inkscape:connector-curvature="0" d="M-369.1,695c3.3-0.5,5.6-1,6.8-1.5c2.5-1,3.8-2.5,3.8-4.8
			c0-2.8-1-4.6-2.8-5.6c-1.8-1-4.6-1.5-8.4-1.5c-4.1,0-7.1,1-8.6,3c-1.3,1.5-2,3.5-2.5,6.1h-16.5c0.3-5.8,2-10.4,4.8-14.2
			c4.6-5.8,12.4-8.6,23.3-8.6c7.1,0,13.7,1.5,19.2,4.3c5.6,2.8,8.4,8.1,8.4,16v29.9c0,2,0,4.6,0,7.6c0,2.3,0.5,3.8,1,4.6
			c0.5,0.8,1.5,1.5,2.5,2v2.5h-18.5c-0.5-1.3-0.8-2.5-1-3.8c-0.3-1.3-0.3-2.5-0.5-4.1c-2.3,2.5-5.1,4.8-8.1,6.6
			c-3.8,2-7.8,3.3-12.7,3.3c-5.8,0-10.9-1.8-14.7-5.1c-3.8-3.3-5.8-8.1-5.8-14.4c0-8.1,3-13.9,9.4-17.5c3.5-2,8.4-3.3,15.2-4.3
			L-369.1,695z M-358.7,702.9c-1,0.8-2.3,1.3-3.3,1.8c-1,0.5-2.5,0.8-4.6,1.3l-3.8,0.8c-3.5,0.8-6.3,1.5-7.8,2.3
			c-2.8,1.5-4.1,4.1-4.1,7.3c0,3,0.8,5.1,2.5,6.3c1.5,1.3,3.5,2,6.1,2c3.8,0,7.1-1,10.4-3.3c3-2.3,4.8-6.1,4.8-11.9v-6.6H-358.7z">
   </path>
   <path fill="#ffffff" id="path9671" inkscape:connector-curvature="0" d="M-288.1,692.7c-0.3-2.5-1-4.6-2.5-6.6c-2-2.5-4.8-4.1-8.9-4.1
			c-5.8,0-9.6,2.8-11.9,8.6c-1,3-1.8,7.1-1.8,12.2c0,4.8,0.5,8.6,1.8,11.6c2,5.3,5.8,8.1,11.6,8.1c4.1,0,6.8-1,8.6-3.3
			c1.8-2.3,2.8-5.1,3-8.4h17.5c-0.5,5.3-2.3,10.1-5.6,14.7c-5.3,7.3-13.2,11.1-23.8,11.1c-10.6,0-18.2-3-23.3-9.4
			s-7.3-14.4-7.3-24.3c0-11.1,2.8-20,8.1-26.1c5.6-6.3,12.9-9.4,22.8-9.4c8.1,0,14.9,1.8,20,5.6c5.1,3.8,8.4,10.1,9.4,19.5
			L-288.1,692.7z">
   </path>
   <path fill="#ffffff" id="path9673" inkscape:connector-curvature="0" d="M-265.1,682.1V670h9.1v-18.2h17V670h10.6v12.2H-239v34.4
			c0,2.8,0.3,4.3,1,5.1c0.8,0.8,2.8,1,6.3,1c0.5,0,1,0,1.8,0c0.5,0,1.3,0,1.8,0v12.7l-8.4,0.3c-8.1,0.3-13.7-1-16.5-4.3
			c-2-2-2.8-5.1-2.8-9.1v-40L-265.1,682.1z">
   </path>
   <path fill="#ffffff" id="path9675" inkscape:connector-curvature="0" d="M-199.7,661.6H-217v-15.7h17.2V661.6z M-217.2,669.5h17.2v65.3h-17.2
			V669.5z">
   </path>
   <path fill="#ffffff" id="path9677" inkscape:connector-curvature="0" d="M-144.3,669.5h18.2l-23.5,65.3h-18l-23.3-65.3h19.2l13.7,48.1
			L-144.3,669.5z">
   </path>
   <path fill="#ffffff" id="path9679" inkscape:connector-curvature="0" d="M-76.2,670.7c4.6,2,8.4,5.3,11.4,9.6c2.8,3.8,4.3,8.4,5.3,13.4
			c0.5,3,0.8,7.3,0.5,12.9h-47.6c0.3,6.6,2.5,11.1,6.8,13.7c2.5,1.5,5.8,2.5,9.4,2.5c3.8,0,7.1-1,9.4-3c1.3-1,2.5-2.5,3.5-4.6H-60
			c-0.5,3.8-2.5,7.8-6.3,11.9c-5.8,6.3-13.9,9.6-24.6,9.6c-8.6,0-16.5-2.8-23-8.1c-6.6-5.3-9.9-14.2-9.9-26.1c0-11.4,3-20,9.1-26.1
			c6.1-6.1,13.7-9.1,23.3-9.1C-85.8,667.7-80.7,668.7-76.2,670.7L-76.2,670.7z M-101.8,685.4c-2.5,2.5-4.1,5.8-4.6,10.1h29.4
			c-0.3-4.6-1.8-7.8-4.6-10.4c-2.8-2.3-6.1-3.5-10.1-3.5C-95.9,681.6-99.2,682.9-101.8,685.4z">
   </path>
   <path fill="#ffffff" id="path9681" inkscape:connector-curvature="0" d="M-47.8,646.7h38c10.4,0,17.7,3,22,9.1c2.5,3.5,3.8,7.8,3.8,12.7
			c0,5.6-1.5,10.1-4.8,13.7c-1.5,1.8-4.1,3.5-7.1,5.1c4.6,1.8,7.8,3.5,10.1,5.8c4.1,3.8,5.8,9.1,5.8,16c0,5.6-1.8,10.9-5.3,15.4
			c-5.3,6.8-13.9,10.4-25.6,10.4h-37.5v-88.1H-47.8z M-14.1,683.9c5.1,0,9.1-0.8,11.9-2c4.6-2.3,6.6-6.1,6.6-11.9
			c0-5.8-2.3-9.6-7.1-11.6c-2.8-1-6.6-1.8-11.9-1.8h-21.5v27.3H-14.1z M-10.1,724.4c7.3,0,12.7-2,15.7-6.3c2-2.8,3-5.8,3-9.6
			c0-6.3-2.8-10.6-8.6-13.2c-3-1.3-7.1-1.8-12.2-1.8h-23.8v30.9L-10.1,724.4z">
   </path>
   <path fill="#ffffff" id="path9683" inkscape:connector-curvature="0" d="M33.2,670.5h10.1v11.1c0.8-2.3,2.8-4.8,6.1-7.8c3.3-3,7.1-4.6,11.4-4.6
			c0.3,0,0.5,0,1,0c0.5,0,1.3,0,2.5,0.3v11.4c-0.8,0-1.3-0.3-1.8-0.3c-0.5,0-1,0-1.8,0c-5.3,0-9.6,1.8-12.4,5.3
			c-3,3.5-4.3,7.6-4.3,12.2v37H33.2L33.2,670.5z">
   </path>
   <path fill="#ffffff" id="path9685" inkscape:connector-curvature="0" d="M119.5,676.8c5.6,5.6,8.6,13.7,8.6,24.3c0,10.4-2.5,19-7.6,25.6
			c-5.1,6.8-12.7,10.1-23.3,10.1c-8.9,0-15.7-3-20.8-8.9c-5.1-6.1-7.8-13.9-7.8-24.1c0-10.9,2.8-19.2,8.1-25.8
			c5.3-6.3,12.7-9.6,21.8-9.6C106.9,668.7,113.7,671.5,119.5,676.8L119.5,676.8z M112.7,719.6c2.5-5.3,4.1-11.4,4.1-18
			c0-6.1-1-10.9-2.8-14.7c-3-5.8-8.1-8.9-15.4-8.9c-6.6,0-11.1,2.5-14.2,7.6c-3,5.1-4.6,11.1-4.6,18.2c0,6.8,1.5,12.4,4.6,17
			c3,4.6,7.6,6.8,14.2,6.8C105.4,727.7,110.2,724.9,112.7,719.6z">
   </path>
   <path fill="#ffffff" id="path9687" inkscape:connector-curvature="0" d="M140,646.7h10.4v51.1l27.6-27.3h13.7l-24.6,23.8l26.1,40.3h-13.7
			l-20.3-32.7l-8.9,8.6v24.1H140L140,646.7z">
   </path>
   <path fill="#ffffff" id="path9689" inkscape:connector-curvature="0" d="M238,672.2c4.3,2,7.6,4.8,9.6,8.4c2,3.3,3.5,7.1,4.3,11.4
			c0.8,3,1,7.6,1,14.2h-46.6c0.3,6.6,1.8,11.6,4.6,15.7c2.8,4.1,7.3,5.8,13.2,5.8c5.6,0,10.1-1.8,13.4-5.6c1.8-2.3,3.3-4.6,4.1-7.6
			h10.6c-0.3,2.3-1.3,5.1-2.8,7.8c-1.5,2.8-3.3,5.3-5.3,7.1c-3.3,3.3-7.3,5.3-12.2,6.6c-2.5,0.8-5.6,1-8.9,1
			c-7.8,0-14.7-2.8-20.3-8.6c-5.6-5.8-8.4-13.9-8.4-24.3c0-10.4,2.8-18.7,8.4-25.1c5.6-6.3,12.9-9.6,21.8-9.6
			C229.4,668.9,233.7,670.2,238,672.2L238,672.2z M242.1,697.6c-0.5-4.6-1.5-8.4-3-11.1c-3-5.3-7.8-7.8-14.7-7.8
			c-4.8,0-9.1,1.8-12.4,5.3c-3.3,3.5-5.1,8.1-5.3,13.7L242.1,697.6z">
   </path>
   <path fill="#ffffff" id="path9691" inkscape:connector-curvature="0" d="M265.9,670.5H276v11.1c0.8-2.3,2.8-4.8,6.1-7.8c3.3-3,7.1-4.6,11.4-4.6
			c0.3,0,0.5,0,1,0c0.5,0,1.3,0,2.5,0.3v11.4c-0.8,0-1.3-0.3-1.8-0.3c-0.5,0-1,0-1.8,0c-5.3,0-9.6,1.8-12.4,5.3
			c-3,3.5-4.3,7.6-4.3,12.2v37h-10.9V670.5z">
   </path>
   <path fill="#ffffff" id="path9693" inkscape:connector-curvature="0" d="M313,714.5c0.3,3.5,1.3,6.3,2.8,8.4c2.8,3.5,7.6,5.3,14.4,5.3
			c4.1,0,7.6-0.8,10.9-2.5c3-1.8,4.6-4.3,4.6-8.1c0-2.8-1.3-4.8-3.8-6.3c-1.5-0.8-4.8-1.8-9.4-3l-8.6-2.3c-5.6-1.3-9.6-2.8-12.4-4.6
			c-4.8-3-7.1-6.8-7.1-12.2c0-6.1,2.3-10.9,6.6-14.7c4.3-3.8,10.4-5.6,18-5.6c9.9,0,17,2.8,21.3,8.6c2.8,3.5,4.1,7.6,4.1,11.6h-10.1
			c-0.3-2.5-1-4.6-2.5-6.6c-2.5-2.8-6.8-4.3-13.2-4.3c-4.1,0-7.3,0.8-9.4,2.3c-2,1.5-3.3,3.5-3.3,6.1c0,2.8,1.5,5.1,4.3,6.6
			c1.5,1,4.1,1.8,7.1,2.5l7.3,1.8c7.8,1.8,13.2,3.8,16,5.6c4.3,2.8,6.3,7.1,6.3,12.9c0,5.8-2.3,10.6-6.6,14.7
			c-4.3,4.1-11.1,6.3-20,6.3c-9.6,0-16.5-2.3-20.5-6.6c-4.1-4.3-6.1-9.6-6.6-16.2h9.9L313,714.5z">
   </path>
   <linearGradient id="polygon9702_1_" gradientUnits="userSpaceOnUse" x1="3088.3625" y1="560.2503" x2="3184.2363" y2="560.2503" gradientTransform="matrix(-0.75 0 0 -0.75 1607.0308 1115.2124)">
    <stop offset="0" style="stop-color:#D81222">
    </stop>
    <stop offset="1" style="stop-color:#960B1A">
    </stop>
   </linearGradient>
   <polygon id="polygon9702" class="st0" points="-781.1,734.5 -781.1,655.5 -709.1,734.5 		">
   </polygon>
   <circle id="circle9704" class="st1" cx="-719.3" cy="674.8" r="21.5">
   </circle>
   <polygon id="polygon9706" class="st1" points="-781.1,655.5 -781.1,734.5 -709.1,572.2 		">
   </polygon>
  </g>
 </g>
</svg>