<svg height="42" viewBox="0 0 150 42" width="150" xmlns="http://www.w3.org/2000/svg"><path fill="#ffffff" d="M131.153 13.8806L130.776 14.3554C129.621 15.8102 125.82 20.9894 125.41 26.5226C125.178 29.655 125.98 32.3008 127.73 34.1765C129.543 36.1202 132.328 37.1471 135.781 37.1471C139.27 37.1471 141.893 36.2022 143.582 34.3383C145.284 32.4556 145.993 29.6468 145.633 26.2143C145.088 21.021 141.991 16.1806 140.685 14.3425L140.356 13.8806H145.492L145.578 14.0224C147.272 16.8125 149.396 21.1172 149.885 25.7712C150.375 30.4381 149.294 34.384 146.757 37.1846C144.261 39.9454 140.466 41.4037 135.781 41.4037C131.109 41.4037 127.242 39.9067 124.598 37.0709C122.055 34.3477 120.83 30.4896 121.147 26.2096C121.509 21.3211 123.597 17.2697 125.498 14.4034L125.841 13.8806H131.153ZM7.36661 15.5316C10.4093 15.561 12.9104 17.2409 14.0597 20.0262L14.1339 20.2056L10.7732 21.8609L10.6861 21.6463C10.5977 21.4295 10.4988 21.2278 10.3917 21.0367C10.142 20.5455 9.80997 20.0333 9.37664 19.6288C8.62067 18.9243 6.86733 18.4565 5.66272 19.4307C5.29063 19.732 4.84199 20.3674 4.84199 21.1458C4.84199 22.1574 5.55086 22.8561 7.21353 23.4821L9.69458 24.4106C12.9975 25.6521 14.5366 27.4761 14.5366 30.1513C14.5366 33.7467 11.5822 36.3574 7.51144 36.3574C3.99064 36.3574 1.20696 34.4642 0.064764 31.292L0 31.1114L3.40658 29.5441C3.542 29.9309 4.05776 31.2251 5.2082 32.2263C5.82993 32.769 7.79758 33.6776 9.44258 32.51C9.86767 32.2075 10.1338 31.8089 10.288 31.4549C10.4576 31.1525 10.5553 30.7949 10.5553 30.3764C10.5553 29.2193 9.81586 28.4386 8.1579 27.8454L5.76399 27.0014C2.52933 25.8678 0.889032 23.964 0.889032 21.3427C0.889032 17.9208 3.5526 15.5316 7.36661 15.5316ZM111.128 21.0939C113.592 21.0939 115.658 22.3635 116.613 24.3717L113.747 25.8488C113.192 24.6964 112.268 23.9297 111.128 23.9297C110.111 23.9297 109.309 24.4315 109.309 25.2579C109.309 25.9672 109.894 26.4689 111.004 26.8241L112.792 27.3845C115.626 28.2707 116.767 29.6892 116.767 31.6082C116.767 34.5612 114.178 36.2751 111.22 36.2751C108.415 36.2751 106.227 34.8274 105.364 32.5824L108.261 31.1358C108.785 32.4652 109.926 33.3514 111.281 33.3514C112.39 33.3514 113.315 32.8485 113.315 31.8439C113.315 31.076 112.76 30.6329 111.589 30.28L109.771 29.7185C107.151 28.9202 105.919 27.5322 105.919 25.524C105.919 22.8067 108.261 21.0939 111.128 21.0939ZM77.5017 21.0939C79.9663 21.0939 82.0317 22.3635 82.9867 24.3717L80.1206 25.8488C79.5659 24.6964 78.6416 23.9297 77.5017 23.9297C76.4843 23.9297 75.6825 24.4315 75.6825 25.2579C75.6825 25.9672 76.2677 26.4689 77.3781 26.8241L79.1644 27.3845C81.9999 28.2707 83.1409 29.6892 83.1409 31.6082C83.1409 34.5612 80.5515 36.2751 77.5936 36.2751C74.7887 36.2751 72.6009 34.8274 71.7377 32.5824L74.6345 31.1358C75.1585 32.4652 76.2995 33.3514 77.6548 33.3514C78.764 33.3514 79.6884 32.8485 79.6884 31.8439C79.6884 31.076 79.1338 30.6329 77.9633 30.28L76.1452 29.7185C73.5252 28.9202 72.2924 27.5322 72.2924 25.524C72.2924 22.8067 74.6345 21.0939 77.5017 21.0939ZM97.5782 21.1949C102.249 21.1949 104.603 24.6391 104.603 28.5006C104.603 28.9027 104.576 29.3036 104.519 29.7046L94.4531 29.701C94.6744 31.422 95.8343 33.1452 97.8537 33.1452C99.4976 33.1452 100.383 32.4043 100.895 30.9355L104.343 31.395C103.812 34.1722 101.336 36.2659 97.7513 36.2659C93.783 36.2659 90.6214 33.4676 90.6214 28.7444C90.6214 24.0213 93.5593 21.1949 97.5782 21.1949ZM63.9457 21.1949C68.6158 21.1949 70.9708 24.6391 70.9708 28.5006C70.9708 28.9027 70.9426 29.3036 70.886 29.7046L60.8205 29.701C61.0419 31.422 62.2018 33.1452 64.2212 33.1452C65.8651 33.1452 66.7506 32.4043 67.2628 30.9355L70.7106 31.395C70.1795 34.1722 67.7032 36.2659 64.1188 36.2659C60.1505 36.2659 56.9889 33.4676 56.9889 28.7444C56.9889 24.0213 59.9268 21.1949 63.9457 21.1949ZM37.4804 21.2225C39.3303 21.2225 40.7799 21.9154 41.7184 22.9259L41.7772 21.5109H45.6336C45.2132 24.0431 45.0767 33.4261 45.5724 35.9512H41.8067L41.7184 34.3335C40.7799 35.46 39.2726 36.2396 37.4239 36.2396C34.4083 36.2396 30.5695 33.813 30.5695 28.7311C30.5695 23.6199 34.267 21.2225 37.4804 21.2225ZM15.8296 15.5723C16.7304 15.5723 17.8915 15.6298 20.1158 15.6298C20.1158 15.6298 19.8403 18.2182 19.7802 22.7057C22.8041 20.2322 26.0647 21.1267 27.3246 22.2345C28.4527 23.2274 29.1357 24.7842 29.158 26.96C29.1886 29.8591 28.9826 32.7511 29.443 35.9562L25.238 35.9163C25.45 33.7311 25.4877 31.8262 25.4877 30.2823C25.4877 28.4558 25.6761 26.0515 24.6057 25.0339C23.7237 24.1945 22.1423 24.2426 21.2038 25.1617C20.296 26.0515 19.9274 27.9693 19.9274 31.5354C19.9274 32.8168 19.9557 34.6127 20.0911 35.9608C20.0911 35.9608 16.3195 35.996 15.7919 35.996C16.4867 31.1861 16.416 21.2228 15.8296 15.5723ZM51.3968 21.5201C51.3085 22.7733 51.2025 24.1519 51.2025 24.1519C52.373 22.52 54.0474 21.5517 56.5061 21.5224L56.4484 25.3453C53.8496 24.9279 51.6182 26.3956 51.5899 30.7378C51.5605 32.9816 51.8125 35.9533 51.8125 35.9533C50.3252 35.9533 47.6947 35.917 47.6947 35.917C48.1468 30.2841 47.7606 22.3172 47.5204 21.4966C48.652 21.4966 51.3968 21.5201 51.3968 21.5201ZM89.078 21.4997C88.8083 23.1608 88.6871 26.1677 88.6741 28.8206C88.66 31.6025 88.7636 34.0373 88.9414 35.9517L87.844 35.951C86.772 35.9497 85.7827 35.947 84.9331 35.947C85.0591 34.0561 85.1521 31.5673 85.1568 28.7714C85.1604 26.04 85.0803 22.9943 84.8624 21.5102L84.9521 21.5098C85.3808 21.5078 87.275 21.4997 89.078 21.4997ZM38.0716 24.4639C35.9779 24.4639 34.3824 26.2786 34.3824 28.7299C34.3824 31.18 35.9779 33.0275 38.0716 33.0275C40.1087 33.0275 41.5959 31.0862 41.5959 28.7299C41.5959 26.3748 40.1087 24.4639 38.0716 24.4639ZM133.045 28.1173C134.199 28.1173 135.134 29.8159 135.134 31.9132H130.955C130.955 29.8159 131.891 28.1173 133.045 28.1173ZM138.053 28.1173C139.207 28.1173 140.142 29.8159 140.142 31.9132H135.963C135.963 29.8159 136.899 28.1173 138.053 28.1173ZM64.266 24.1666C61.9274 24.1666 61.0466 25.9227 60.837 27.2978L67.2604 27.3014C67.2381 25.8407 66.1029 24.1666 64.266 24.1666ZM97.8985 24.1666C95.5599 24.1666 94.6791 25.9227 94.4695 27.2978L100.893 27.3014C100.871 25.8407 99.7354 24.1666 97.8985 24.1666ZM140.557 23.2867C141.711 23.2867 142.646 24.9865 142.646 27.0826H138.467C138.467 24.9865 139.403 23.2867 140.557 23.2867ZM135.549 23.2867C136.703 23.2867 137.638 24.9865 137.638 27.0826H133.459C133.459 24.9865 134.395 23.2867 135.549 23.2867ZM130.541 23.2867C131.695 23.2867 132.63 24.9865 132.63 27.0826H128.451C128.451 24.9865 129.387 23.2867 130.541 23.2867ZM138.053 18.4562C139.207 18.4562 140.142 20.156 140.142 22.2521H135.963C135.963 20.156 136.899 18.4562 138.053 18.4562ZM133.045 18.4562C134.199 18.4562 135.134 20.156 135.134 22.2521H130.955C130.955 20.156 131.891 18.4562 133.045 18.4562ZM87.1423 14.5091C88.4717 14.5091 89.482 15.5219 89.482 16.8138C89.482 18.3073 88.4446 19.2451 87.0893 19.2451C85.6798 19.2451 84.6153 18.3589 84.6153 16.8642C84.6153 15.4457 85.7598 14.5091 87.1423 14.5091ZM140.032 2.48828e-05C143.882 -0.0279616 144.515 3.9508 144.515 3.9508C144.515 3.9508 141.216 3.28025 138.805 4.68817C137.276 5.58029 136.379 7.68104 135.924 9.10068C136.517 7.72676 137.947 5.58615 141.113 5.56739C145.681 5.54163 146.601 10.0662 146.673 10.4684L146.678 10.4969C146.678 10.4969 142.584 9.10537 139.591 10.4488C136.6 11.7899 135.551 15.5928 135.548 15.601C135.483 15.3724 134.409 11.7505 131.507 10.4488C128.514 9.10537 124.42 10.4969 124.42 10.4969C124.42 10.4969 125.205 5.54043 129.983 5.56739C133.15 5.58615 134.58 7.72676 135.173 9.10068C134.719 7.68104 133.822 5.58029 132.293 4.68817C129.881 3.28025 126.583 3.9508 126.583 3.9508C126.583 3.9508 127.215 -0.0279616 131.066 2.48828e-05C134.812 0.0283084 135.545 4.85816 135.548 4.8816C135.552 4.85816 136.284 0.0283084 140.032 2.48828e-05Z"></path></svg>