<svg xmlns="http://www.w3.org/2000/svg" viewBox="0 0 80 80" width="80" height="80">
  <!-- Official Sharesies logo with brand gradient background -->
  <defs>
    <linearGradient id="sharesiesGradient" x1="0%" y1="0%" x2="100%" y2="100%">
      <stop offset="0%" style="stop-color:#00c9a7;stop-opacity:1" />
      <stop offset="100%" style="stop-color:#00b894;stop-opacity:1" />
    </linearGradient>
  </defs>
  <circle cx="40" cy="40" r="40" fill="url(#sharesiesGradient)"/>
  <g transform="translate(2, 0) scale(0.47)">
    <path d="m38.88 34.82-.596.758c-1.824 2.32-7.827 10.576-8.474 19.397-.366 4.994.9 9.212 3.663 12.203 2.864 3.099 7.262 4.736 12.715 4.736 5.51 0 9.653-1.507 12.32-4.478 2.689-3.002 3.808-7.48 3.24-12.952-.862-8.28-5.752-15.996-7.815-18.927l-.519-.736h8.11l.136.226c2.676 4.448 6.03 11.31 6.803 18.73.773 7.44-.934 13.732-4.94 18.197-3.942 4.4-9.936 6.726-17.335 6.726-7.378 0-13.485-2.387-17.661-6.908-4.015-4.341-5.951-10.492-5.449-17.316.57-7.793 3.868-14.252 6.871-18.822l.541-.833h8.39Zm2.988 22.698c1.823 0 3.3 2.708 3.3 6.051h-6.6c0-3.343 1.478-6.051 3.3-6.051Zm7.909 0c1.822 0 3.299 2.708 3.299 6.051h-6.6c0-3.343 1.479-6.051 3.301-6.051Zm3.954-7.701c1.823 0 3.3 2.71 3.3 6.051h-6.6c0-3.341 1.478-6.051 3.3-6.051Zm-7.908 0c1.822 0 3.299 2.71 3.299 6.051h-6.6c0-3.341 1.478-6.051 3.3-6.051Zm-7.91 0c1.823 0 3.3 2.71 3.3 6.051h-6.6c0-3.341 1.478-6.051 3.3-6.051Zm11.864-7.702c1.822 0 3.299 2.71 3.299 6.052h-6.6c0-3.342 1.479-6.052 3.301-6.052Zm-7.909 0c1.823 0 3.3 2.71 3.3 6.052h-6.6c0-3.342 1.478-6.052 3.3-6.052Zm11.035-29.423c6.079-.045 7.08 6.298 7.08 6.298s-5.212-1.069-9.018 1.176c-2.416 1.422-3.833 4.771-4.55 7.035.937-2.19 3.194-5.604 8.195-5.634 7.212-.04 8.666 7.173 8.78 7.814l.008.045s-6.466-2.218-11.193-.076c-4.723 2.138-6.38 8.2-6.384 8.214-.104-.365-1.8-6.14-6.382-8.214-4.727-2.142-11.194.076-11.194.076s1.24-7.901 8.787-7.858c5 .03 7.26 3.442 8.196 5.633-.716-2.264-2.133-5.613-4.549-7.035-3.809-2.245-9.017-1.176-9.017-1.176s.998-6.343 7.08-6.298c5.917.045 7.073 7.745 7.079 7.782.006-.037 1.162-7.737 7.082-7.782Z" fill="#fff"/>
  </g>
</svg>
